<svg width="130" height="24" viewBox="0 0 130 24" fill="none" xmlns="http://www.w3.org/2000/svg">
<g clip-path="url(#clip0_3_2)">
<path d="M122.761 10.4972C123.254 10.4986 123.742 10.4021 124.197 10.2135C124.653 10.0249 125.066 9.74789 125.413 9.39845L129.023 5.79142C129.308 5.50595 129.334 5.04142 129.062 4.74189C128.994 4.66663 128.911 4.60603 128.819 4.56376C128.727 4.52148 128.627 4.49842 128.525 4.49596C128.424 4.49351 128.323 4.51171 128.228 4.54948C128.134 4.58724 128.048 4.64377 127.976 4.71564L124.759 7.93032C124.651 8.03821 124.505 8.09881 124.352 8.09881C124.2 8.09881 124.053 8.03821 123.945 7.93032C123.721 7.70626 123.733 7.32751 123.957 7.10345L127.16 3.90048C127.232 3.82868 127.288 3.74305 127.326 3.64877C127.364 3.5545 127.382 3.45355 127.379 3.35204C127.377 3.25054 127.354 3.15058 127.312 3.05824C127.269 2.96591 127.209 2.8831 127.134 2.81485C126.998 2.69174 126.821 2.624 126.638 2.62501C126.43 2.62515 126.231 2.70777 126.084 2.8547L122.884 6.05439C122.776 6.16227 122.629 6.22287 122.477 6.22287C122.324 6.22287 122.178 6.16227 122.07 6.05439C121.846 5.83032 121.857 5.45157 122.081 5.22751L125.284 2.02548C125.356 1.95368 125.413 1.86805 125.45 1.77377C125.488 1.6795 125.506 1.57855 125.504 1.47704C125.501 1.37554 125.478 1.27558 125.436 1.18324C125.394 1.09091 125.333 1.0081 125.258 0.939855C125.122 0.816743 124.945 0.749003 124.762 0.750011C124.555 0.750257 124.355 0.832859 124.209 0.979699L120.602 4.58673C120.252 4.93425 119.975 5.34764 119.786 5.80298C119.598 6.25831 119.501 6.74654 119.503 7.23939V7.62517C119.503 7.7238 119.484 7.82148 119.446 7.91261C119.408 8.00374 119.353 8.08654 119.283 8.15626L117.614 9.82595C117.596 9.84338 117.576 9.85721 117.553 9.86665C117.53 9.87608 117.506 9.88094 117.481 9.88094C117.456 9.88094 117.432 9.87608 117.409 9.86665C117.387 9.85721 117.366 9.84338 117.348 9.82595L109.226 1.70298C109.086 1.56263 108.896 1.48354 108.697 1.48301C108.499 1.48248 108.308 1.56057 108.167 1.70017C107.457 2.40376 107.078 3.39704 107.078 4.5722C107.073 6.51282 108.093 8.74407 109.74 10.3884L113.746 14.3939C114.315 14.9621 115.086 15.2812 115.891 15.2813C116.147 15.2814 116.402 15.2486 116.65 15.1838C116.713 15.1674 116.777 15.1591 116.841 15.1589C117.03 15.1589 117.211 15.2301 117.349 15.3581L117.883 15.8513C118.021 15.9919 118.098 16.1808 118.098 16.3777V16.6374C118.097 17.2277 118.329 17.7947 118.744 18.2147L122.965 22.507L122.969 22.5117C123.438 22.9802 124.073 23.2433 124.736 23.2433C125.398 23.2432 126.034 22.98 126.502 22.5115C126.97 22.043 127.234 21.4076 127.233 20.7451C127.233 20.0826 126.97 19.4472 126.502 18.9788L120.175 12.6516C120.157 12.6342 120.143 12.6135 120.134 12.5907C120.124 12.568 120.12 12.5436 120.12 12.5189C120.12 12.4943 120.124 12.4699 120.134 12.4471C120.143 12.4244 120.157 12.4037 120.175 12.3863L121.844 10.717C121.913 10.6473 121.996 10.592 122.087 10.5543C122.178 10.5166 122.276 10.4972 122.374 10.4972H122.761Z" fill="black"/>
<path d="M115.891 16.7813C114.69 16.7788 113.538 16.303 112.686 15.4571L112.037 14.8074C111.966 14.7373 111.871 14.6979 111.772 14.6979C111.672 14.6979 111.577 14.7373 111.507 14.8074L107.522 18.7711C106.812 19.4813 106.559 20.5266 106.91 21.5504C106.93 21.608 106.953 21.6644 106.98 21.7191C107.453 22.6875 108.371 23.25 109.375 23.25C109.72 23.2509 110.062 23.1832 110.381 23.0509C110.7 22.9187 110.99 22.7244 111.233 22.4794L116.547 17.1404C116.569 17.1175 116.586 17.0901 116.597 17.06C116.608 17.0299 116.612 16.9978 116.609 16.966V16.9538C116.607 16.9246 116.599 16.8961 116.585 16.87C116.572 16.8439 116.553 16.8209 116.531 16.8022C116.508 16.7835 116.482 16.7695 116.454 16.7612C116.426 16.7528 116.396 16.7503 116.367 16.7536C116.209 16.7712 116.05 16.7804 115.891 16.7813Z" fill="black"/>
</g>
<path d="M1.824 20V3.536H7.272L9.624 11.96C9.72 12.264 9.816 12.624 9.912 13.04C10.008 13.456 10.104 13.872 10.2 14.288C10.312 14.688 10.4 15.048 10.464 15.368H10.656C10.688 15.096 10.744 14.776 10.824 14.408C10.904 14.024 10.992 13.616 11.088 13.184C11.184 12.752 11.288 12.336 11.4 11.936L13.752 3.536H19.104V20H15.576V12.2C15.576 11.48 15.576 10.76 15.576 10.04C15.592 9.304 15.608 8.664 15.624 8.12C15.656 7.576 15.672 7.224 15.672 7.064H15.48C15.448 7.24 15.368 7.568 15.24 8.048C15.128 8.512 15 9.008 14.856 9.536C14.728 10.064 14.608 10.52 14.496 10.904L11.928 20H8.808L6.216 10.928C6.12 10.592 6.008 10.2 5.88 9.752C5.768 9.288 5.656 8.816 5.544 8.336C5.448 7.84 5.352 7.416 5.256 7.064H5.064C5.08 7.496 5.096 8.016 5.112 8.624C5.128 9.216 5.144 9.832 5.16 10.472C5.176 11.096 5.184 11.672 5.184 12.2V20H1.824ZM27.7217 20.288C26.3297 20.288 25.1617 20.056 24.2177 19.592C23.2737 19.112 22.5617 18.384 22.0817 17.408C21.6017 16.432 21.3617 15.192 21.3617 13.688C21.3617 12.168 21.6017 10.928 22.0817 9.968C22.5617 8.992 23.2657 8.272 24.1937 7.808C25.1377 7.328 26.2897 7.088 27.6497 7.088C28.9297 7.088 30.0097 7.32 30.8897 7.784C31.7697 8.232 32.4337 8.936 32.8817 9.896C33.3297 10.84 33.5537 12.064 33.5537 13.568V14.432H24.7457C24.7777 15.168 24.8897 15.792 25.0817 16.304C25.2897 16.816 25.6017 17.2 26.0177 17.456C26.4497 17.696 27.0177 17.816 27.7217 17.816C28.1057 17.816 28.4497 17.768 28.7537 17.672C29.0737 17.576 29.3457 17.432 29.5697 17.24C29.7937 17.048 29.9697 16.808 30.0977 16.52C30.2257 16.232 30.2897 15.904 30.2897 15.536H33.5537C33.5537 16.336 33.4097 17.032 33.1217 17.624C32.8337 18.216 32.4337 18.712 31.9217 19.112C31.4097 19.496 30.7937 19.792 30.0737 20C29.3697 20.192 28.5857 20.288 27.7217 20.288ZM24.7937 12.32H30.1217C30.1217 11.84 30.0577 11.424 29.9297 11.072C29.8177 10.72 29.6577 10.432 29.4497 10.208C29.2417 9.984 28.9857 9.824 28.6817 9.728C28.3937 9.616 28.0657 9.56 27.6977 9.56C27.0897 9.56 26.5777 9.664 26.1617 9.872C25.7617 10.064 25.4497 10.368 25.2257 10.784C25.0177 11.184 24.8737 11.696 24.7937 12.32ZM35.5213 20V7.376H38.2813L38.5453 9.104H38.7133C39.0013 8.688 39.3453 8.328 39.7453 8.024C40.1613 7.72 40.6253 7.488 41.1373 7.328C41.6493 7.168 42.2093 7.088 42.8173 7.088C43.6493 7.088 44.3773 7.24 45.0013 7.544C45.6253 7.848 46.1053 8.328 46.4413 8.984C46.7933 9.64 46.9693 10.496 46.9693 11.552V20H43.6333V12.08C43.6333 11.68 43.5853 11.344 43.4893 11.072C43.3933 10.784 43.2493 10.552 43.0573 10.376C42.8813 10.184 42.6573 10.048 42.3853 9.968C42.1133 9.888 41.8093 9.848 41.4733 9.848C40.9773 9.848 40.5293 9.968 40.1293 10.208C39.7293 10.448 39.4173 10.776 39.1933 11.192C38.9693 11.608 38.8573 12.088 38.8573 12.632V20H35.5213ZM53.5588 20.288C52.2788 20.288 51.2628 19.936 50.5108 19.232C49.7588 18.528 49.3828 17.392 49.3828 15.824V7.376H52.7188V15.272C52.7188 15.688 52.7668 16.04 52.8628 16.328C52.9588 16.6 53.0948 16.824 53.2708 17C53.4628 17.176 53.6948 17.304 53.9668 17.384C54.2388 17.464 54.5428 17.504 54.8788 17.504C55.3748 17.504 55.8228 17.384 56.2228 17.144C56.6228 16.904 56.9348 16.576 57.1588 16.16C57.3828 15.728 57.4948 15.248 57.4948 14.72V7.376H60.8308V20H58.0948L57.8548 18.272H57.6868C57.3828 18.672 57.0228 19.024 56.6068 19.328C56.2068 19.632 55.7508 19.864 55.2388 20.024C54.7268 20.2 54.1668 20.288 53.5588 20.288ZM67.1809 20.288C66.3809 20.288 65.7329 20.144 65.2369 19.856C64.7409 19.568 64.3809 19.184 64.1569 18.704C63.9329 18.208 63.8209 17.664 63.8209 17.072V9.944H62.2609V7.376H63.9409L64.5649 3.776H67.1569V7.376H69.4609V9.944H67.1569V16.52C67.1569 16.904 67.2449 17.2 67.4209 17.408C67.5969 17.6 67.8849 17.696 68.2849 17.696H69.4609V19.904C69.2689 19.968 69.0449 20.024 68.7889 20.072C68.5329 20.136 68.2609 20.184 67.9729 20.216C67.6849 20.264 67.4209 20.288 67.1809 20.288ZM71.136 20V7.376H73.896L74.16 9.344H74.328C74.488 8.928 74.696 8.552 74.952 8.216C75.208 7.864 75.528 7.584 75.912 7.376C76.296 7.168 76.744 7.064 77.256 7.064C77.528 7.064 77.776 7.096 78 7.16C78.224 7.208 78.392 7.256 78.504 7.304V10.328H77.472C76.976 10.328 76.536 10.4 76.152 10.544C75.784 10.672 75.472 10.88 75.216 11.168C74.96 11.456 74.768 11.808 74.64 12.224C74.528 12.64 74.472 13.128 74.472 13.688V20H71.136ZM85.2748 20.288C83.8828 20.288 82.7148 20.056 81.7708 19.592C80.8268 19.112 80.1148 18.384 79.6348 17.408C79.1548 16.432 78.9148 15.192 78.9148 13.688C78.9148 12.168 79.1548 10.928 79.6348 9.968C80.1148 8.992 80.8188 8.272 81.7468 7.808C82.6908 7.328 83.8428 7.088 85.2028 7.088C86.4828 7.088 87.5628 7.32 88.4428 7.784C89.3228 8.232 89.9868 8.936 90.4348 9.896C90.8828 10.84 91.1068 12.064 91.1068 13.568V14.432H82.2988C82.3308 15.168 82.4428 15.792 82.6348 16.304C82.8428 16.816 83.1548 17.2 83.5708 17.456C84.0028 17.696 84.5708 17.816 85.2748 17.816C85.6588 17.816 86.0028 17.768 86.3068 17.672C86.6268 17.576 86.8988 17.432 87.1228 17.24C87.3468 17.048 87.5228 16.808 87.6508 16.52C87.7788 16.232 87.8428 15.904 87.8428 15.536H91.1068C91.1068 16.336 90.9628 17.032 90.6748 17.624C90.3868 18.216 89.9868 18.712 89.4748 19.112C88.9628 19.496 88.3468 19.792 87.6268 20C86.9228 20.192 86.1388 20.288 85.2748 20.288ZM82.3468 12.32H87.6748C87.6748 11.84 87.6108 11.424 87.4828 11.072C87.3708 10.72 87.2108 10.432 87.0028 10.208C86.7948 9.984 86.5388 9.824 86.2348 9.728C85.9468 9.616 85.6188 9.56 85.2508 9.56C84.6428 9.56 84.1308 9.664 83.7148 9.872C83.3148 10.064 83.0028 10.368 82.7788 10.784C82.5708 11.184 82.4268 11.696 82.3468 12.32ZM98.8104 20.288C97.4184 20.288 96.2504 20.056 95.3064 19.592C94.3624 19.112 93.6504 18.384 93.1704 17.408C92.6904 16.432 92.4504 15.192 92.4504 13.688C92.4504 12.168 92.6904 10.928 93.1704 9.968C93.6504 8.992 94.3544 8.272 95.2824 7.808C96.2264 7.328 97.3784 7.088 98.7384 7.088C100.018 7.088 101.098 7.32 101.978 7.784C102.858 8.232 103.522 8.936 103.97 9.896C104.418 10.84 104.642 12.064 104.642 13.568V14.432H95.8344C95.8664 15.168 95.9784 15.792 96.1704 16.304C96.3784 16.816 96.6904 17.2 97.1064 17.456C97.5384 17.696 98.1064 17.816 98.8104 17.816C99.1944 17.816 99.5384 17.768 99.8424 17.672C100.162 17.576 100.434 17.432 100.658 17.24C100.882 17.048 101.058 16.808 101.186 16.52C101.314 16.232 101.378 15.904 101.378 15.536H104.642C104.642 16.336 104.498 17.032 104.21 17.624C103.922 18.216 103.522 18.712 103.01 19.112C102.498 19.496 101.882 19.792 101.162 20C100.458 20.192 99.6744 20.288 98.8104 20.288ZM95.8824 12.32H101.21C101.21 11.84 101.146 11.424 101.018 11.072C100.906 10.72 100.746 10.432 100.538 10.208C100.33 9.984 100.074 9.824 99.7704 9.728C99.4824 9.616 99.1544 9.56 98.7864 9.56C98.1784 9.56 97.6664 9.664 97.2504 9.872C96.8504 10.064 96.5384 10.368 96.3144 10.784C96.1064 11.184 95.9624 11.696 95.8824 12.32Z" fill="black"/>
<defs>
<clipPath id="clip0_3_2">
<rect width="24" height="24" fill="white" transform="translate(106)"/>
</clipPath>
</defs>
</svg>
